<svg width="376" height="304" viewBox="0 0 376 304" fill="none" xmlns="http://www.w3.org/2000/svg">
<g filter="url(#filter0_bd_2033_2)">
<path d="M26 98.8656C26 48.0904 70.7156 8.991 121.337 12.9342C144.208 14.7157 167.83 16.0186 188 16.0186C208.17 16.0186 231.792 14.7157 254.663 12.9342C305.284 8.991 350 48.0904 350 98.8656V181C350 227.392 312.392 265 266 265H110C63.6081 265 26 227.392 26 181V98.8656Z" fill="white" fill-opacity="0.05" shape-rendering="crispEdges"/>
<path d="M349 98.8656V181C349 226.84 311.84 264 266 264H110C64.1604 264 27 226.84 27 181V98.8656C27 48.7079 71.1841 10.0305 121.26 13.9312C144.142 15.7135 167.792 17.0186 188 17.0186C208.208 17.0186 231.858 15.7135 254.74 13.9312C304.816 10.0305 349 48.7079 349 98.8656Z" stroke="url(#paint0_linear_2033_2)" stroke-width="2" shape-rendering="crispEdges"/>
</g>
<defs>
<filter id="filter0_bd_2033_2" x="0.5" y="-4.43984" width="375" height="307.94" filterUnits="userSpaceOnUse" color-interpolation-filters="sRGB">
<feFlood flood-opacity="0" result="BackgroundImageFix"/>
<feGaussianBlur in="BackgroundImageFix" stdDeviation="8.55"/>
<feComposite in2="SourceAlpha" operator="in" result="effect1_backgroundBlur_2033_2"/>
<feColorMatrix in="SourceAlpha" type="matrix" values="0 0 0 0 0 0 0 0 0 0 0 0 0 0 0 0 0 0 127 0" result="hardAlpha"/>
<feOffset dy="13"/>
<feGaussianBlur stdDeviation="12.75"/>
<feComposite in2="hardAlpha" operator="out"/>
<feColorMatrix type="matrix" values="0 0 0 0 0 0 0 0 0 0 0 0 0 0 0 0 0 0 0.25 0"/>
<feBlend mode="normal" in2="effect1_backgroundBlur_2033_2" result="effect2_dropShadow_2033_2"/>
<feBlend mode="normal" in="SourceGraphic" in2="effect2_dropShadow_2033_2" result="shape"/>
</filter>
<linearGradient id="paint0_linear_2033_2" x1="43.0859" y1="19.8835" x2="197.624" y2="324.817" gradientUnits="userSpaceOnUse">
<stop stop-color="white" stop-opacity="0.4"/>
<stop offset="0.46" stop-color="white" stop-opacity="0"/>
<stop offset="1" stop-color="white" stop-opacity="0.4"/>
</linearGradient>
</defs>
</svg>
