<svg width="550" height="508" viewBox="0 0 550 508" fill="none" xmlns="http://www.w3.org/2000/svg">
<g filter="url(#filter0_bd_2019_2)">
<path d="M19 88.1697C19 41.5238 60.1363 5.47099 106.534 10.2752C158.414 15.6471 223.808 21.1168 275 21.1168C326.192 21.1168 391.586 15.6471 443.466 10.2752C489.864 5.47099 531 41.5237 531 88.1697V403C531 445.526 496.526 480 454 480H96C53.4741 480 19 445.526 19 403V88.1697Z" fill="white" fill-opacity="0.05" shape-rendering="crispEdges"/>
<path d="M20 88.1697C20 42.1347 60.6052 6.5249 106.431 11.2699C158.318 16.6424 223.754 22.1168 275 22.1168C326.246 22.1168 391.682 16.6424 443.569 11.2699C489.395 6.5249 530 42.1347 530 88.1697V403C530 444.974 495.974 479 454 479H96C54.0264 479 20 444.974 20 403V88.1697Z" stroke="url(#paint0_linear_2019_2)" stroke-width="2" shape-rendering="crispEdges"/>
</g>
<defs>
<filter id="filter0_bd_2019_2" x="-6" y="-15.1548" width="562" height="522.555" filterUnits="userSpaceOnUse" color-interpolation-filters="sRGB">
<feFlood flood-opacity="0" result="BackgroundImageFix"/>
<feGaussianBlur in="BackgroundImageFix" stdDeviation="12.5"/>
<feComposite in2="SourceAlpha" operator="in" result="effect1_backgroundBlur_2019_2"/>
<feColorMatrix in="SourceAlpha" type="matrix" values="0 0 0 0 0 0 0 0 0 0 0 0 0 0 0 0 0 0 127 0" result="hardAlpha"/>
<feOffset dy="9"/>
<feGaussianBlur stdDeviation="9.2"/>
<feComposite in2="hardAlpha" operator="out"/>
<feColorMatrix type="matrix" values="0 0 0 0 0 0 0 0 0 0 0 0 0 0 0 0 0 0 0.25 0"/>
<feBlend mode="normal" in2="effect1_backgroundBlur_2019_2" result="effect2_dropShadow_2019_2"/>
<feBlend mode="normal" in="SourceGraphic" in2="effect2_dropShadow_2019_2" result="shape"/>
</filter>
<linearGradient id="paint0_linear_2019_2" x1="31" y1="45.0932" x2="326.283" y2="547.718" gradientUnits="userSpaceOnUse">
<stop stop-color="white" stop-opacity="0.2"/>
<stop offset="0.52" stop-opacity="0"/>
<stop offset="1" stop-color="white" stop-opacity="0.2"/>
</linearGradient>
</defs>
</svg>
